<svg width="35" height="35" viewBox="0 0 35 35" fill="none" xmlns="http://www.w3.org/2000/svg">
<path fill-rule="evenodd" clip-rule="evenodd" d="M25 3H10C6.13401 3 3 6.13401 3 10V25C3 28.866 6.13401 32 10 32H25C28.866 32 32 28.866 32 25V10C32 6.13401 28.866 3 25 3ZM10 0C4.47715 0 0 4.47715 0 10V25C0 30.5228 4.47715 35 10 35H25C30.5228 35 35 30.5228 35 25V10C35 4.47715 30.5228 0 25 0H10ZM17.75 23.5C20.9256 23.5 23.5 20.9256 23.5 17.75C23.5 14.5744 20.9256 12 17.75 12C14.5744 12 12 14.5744 12 17.75C12 20.9256 14.5744 23.5 17.75 23.5ZM17.75 26.5C22.5825 26.5 26.5 22.5825 26.5 17.75C26.5 12.9175 22.5825 9 17.75 9C12.9175 9 9 12.9175 9 17.75C9 22.5825 12.9175 26.5 17.75 26.5ZM27 10C28.1046 10 29 9.10457 29 8C29 6.89543 28.1046 6 27 6C25.8954 6 25 6.89543 25 8C25 9.10457 25.8954 10 27 10Z" fill="white"/>
</svg>
