<svg width="35" height="35" viewBox="0 0 35 35" fill="none" xmlns="http://www.w3.org/2000/svg">
<g clip-path="url(#clip0_14_185)">
<path d="M34.2066 6.47941C33.6568 6.72328 33.0915 6.92911 32.5139 7.0962C33.1977 6.32282 33.7191 5.41281 34.0374 4.41701C34.1087 4.1938 34.0348 3.94948 33.8513 3.80349C33.6681 3.6574 33.4135 3.6399 33.2117 3.75946C31.985 4.48701 30.6616 5.00986 29.2739 5.31561C27.876 3.9497 25.9774 3.17236 24.0147 3.17236C19.8718 3.17236 16.5011 6.54286 16.5011 10.6857C16.5011 11.012 16.5218 11.3365 16.5627 11.6565C11.4216 11.2051 6.6421 8.6782 3.36 4.65219C3.24304 4.50869 3.06284 4.43135 2.87836 4.44614C2.69376 4.46059 2.52791 4.56469 2.43465 4.72467C1.76897 5.86691 1.41705 7.17332 1.41705 8.50252C1.41705 10.3129 2.06342 12.0306 3.20521 13.3728C2.85804 13.2526 2.52113 13.1023 2.19959 12.9238C2.02696 12.8277 1.81628 12.8292 1.64478 12.9275C1.47317 13.0259 1.36557 13.2068 1.36105 13.4044C1.36026 13.4378 1.36026 13.4711 1.36026 13.5048C1.36026 16.2072 2.81468 18.6401 5.03831 19.9662C4.84728 19.9471 4.65636 19.9194 4.46668 19.8832C4.27113 19.8458 4.07005 19.9143 3.93818 20.0635C3.80608 20.2125 3.76239 20.4203 3.82325 20.6099C4.64631 23.1796 6.76539 25.0697 9.32716 25.646C7.20244 26.9768 4.77265 27.6738 2.22194 27.6738C1.68971 27.6738 1.15444 27.6426 0.63057 27.5806C0.370328 27.5496 0.121489 27.7033 0.0328604 27.9508C-0.0557686 28.1984 0.0381669 28.4744 0.25957 28.6163C3.53636 30.7174 7.32528 31.8279 11.2165 31.8279C18.8661 31.8279 23.6515 28.2206 26.3189 25.1945C29.645 21.4211 31.5526 16.4266 31.5526 11.4918C31.5526 11.2856 31.5494 11.0774 31.5431 10.8699C32.8554 9.88119 33.9852 8.68464 34.9046 7.30936C35.0442 7.10049 35.0291 6.82444 34.8673 6.63217C34.7058 6.43978 34.4365 6.37757 34.2066 6.47941Z" fill="white"/>
</g>
<defs>
<clipPath id="clip0_14_185">
<rect width="35" height="35" fill="white"/>
</clipPath>
</defs>
</svg>
